<svg width="30" height="30" viewBox="0 0 30 30" fill="none" xmlns="http://www.w3.org/2000/svg">
<path d="M27.5 10.2025V10.2937C27.5 11.3687 27.5 11.9075 27.2412 12.3475C26.9825 12.7875 26.5113 13.0487 25.5713 13.5725L24.58 14.1225C25.2625 11.8125 25.4912 9.32996 25.575 7.20746L25.5875 6.93121L25.59 6.86621C26.4037 7.14871 26.8612 7.35996 27.1462 7.75496C27.5 8.24621 27.5 8.89871 27.5 10.2025ZM2.5 10.2025V10.2937C2.5 11.3687 2.5 11.9075 2.75875 12.3475C3.0175 12.7875 3.48875 13.0487 4.42875 13.5725L5.42125 14.1225C4.7375 11.8125 4.50875 9.32996 4.425 7.20746L4.4125 6.93121L4.41125 6.86621C3.59625 7.14871 3.13875 7.35996 2.85375 7.75496C2.5 8.24621 2.5 8.89996 2.5 10.2025Z" fill="#ECD000"/>
<path fill-rule="evenodd" clip-rule="evenodd" d="M20.4712 2.93379C18.6627 2.63753 16.8326 2.49245 15 2.50004C12.7712 2.50004 10.9337 2.69629 9.52873 2.93379C8.10498 3.17379 7.39373 3.29379 6.79873 4.02629C6.20498 4.75879 6.23623 5.55004 6.29873 7.13254C6.51498 12.5675 7.68748 19.3575 14.0625 19.9575V24.375H12.275C11.9861 24.3752 11.7062 24.4754 11.4829 24.6586C11.2596 24.8419 11.1066 25.0968 11.05 25.38L10.8125 26.5625H7.49998C7.25134 26.5625 7.01288 26.6613 6.83706 26.8371C6.66125 27.0129 6.56248 27.2514 6.56248 27.5C6.56248 27.7487 6.66125 27.9871 6.83706 28.163C7.01288 28.3388 7.25134 28.4375 7.49998 28.4375H22.5C22.7486 28.4375 22.9871 28.3388 23.1629 28.163C23.3387 27.9871 23.4375 27.7487 23.4375 27.5C23.4375 27.2514 23.3387 27.0129 23.1629 26.8371C22.9871 26.6613 22.7486 26.5625 22.5 26.5625H19.1875L18.95 25.38C18.8934 25.0968 18.7404 24.8419 18.5171 24.6586C18.2937 24.4754 18.0138 24.3752 17.725 24.375H15.9375V19.9575C22.3125 19.3575 23.4862 12.5688 23.7012 7.13254C23.7637 5.55004 23.7962 4.75754 23.2012 4.02629C22.6062 3.29379 21.895 3.17379 20.4712 2.93379Z" fill="#ECD000"/>
</svg>
