<svg width="30" height="30" viewBox="0 0 30 30" fill="none" xmlns="http://www.w3.org/2000/svg">
<path d="M15 15.625C13.8397 15.625 12.7269 16.0859 11.9064 16.9064C11.0859 17.7269 10.625 18.8397 10.625 20C10.625 21.1603 11.0859 22.2731 11.9064 23.0936C12.7269 23.9141 13.8397 24.375 15 24.375C16.1603 24.375 17.2731 23.9141 18.0936 23.0936C18.9141 22.2731 19.375 21.1603 19.375 20C19.375 18.8397 18.9141 17.7269 18.0936 16.9064C17.2731 16.0859 16.1603 15.625 15 15.625ZM13.125 20C13.125 19.5027 13.3225 19.0258 13.6742 18.6742C14.0258 18.3225 14.5027 18.125 15 18.125C15.4973 18.125 15.9742 18.3225 16.3258 18.6742C16.6775 19.0258 16.875 19.5027 16.875 20C16.875 20.4973 16.6775 20.9742 16.3258 21.3258C15.9742 21.6775 15.4973 21.875 15 21.875C14.5027 21.875 14.0258 21.6775 13.6742 21.3258C13.3225 20.9742 13.125 20.4973 13.125 20Z" fill="#399918"/>
<path d="M21.9075 6.39501L17.9338 0.823761L3.3225 12.4963L2.5125 12.4875V12.5H1.875V27.5H28.125V12.5H26.9225L24.53 5.50126L21.9075 6.39501ZM24.2812 12.5H11.7463L21.0825 9.31751L22.985 8.70876L24.2812 12.5ZM19.4375 7.23751L9.8 10.5225L17.4325 4.42501L19.4375 7.23751ZM4.375 22.7113V17.2863C4.90272 17.1 5.38206 16.798 5.77788 16.4024C6.1737 16.0068 6.47596 15.5276 6.6625 15H23.3375C23.5239 15.5279 23.8261 16.0073 24.2219 16.4031C24.6177 16.7989 25.0972 17.1011 25.625 17.2875V22.7125C25.0972 22.8989 24.6177 23.2011 24.2219 23.5969C23.8261 23.9927 23.5239 24.4722 23.3375 25H6.665C6.47773 24.4721 6.17496 23.9927 5.77877 23.5967C5.38259 23.2008 4.903 22.8982 4.375 22.7113Z" fill="#399918"/>
</svg>
