<svg width="30" height="30" viewBox="0 0 30 30" fill="none" xmlns="http://www.w3.org/2000/svg">
<path d="M23.1262 4.375L4.37622 23.1262L6.87122 25.6213L25.6212 6.87125L23.1262 4.375ZM8.75247 6.25C8.42417 6.24967 8.09901 6.31401 7.79557 6.43934C7.49213 6.56468 7.21635 6.74855 6.98397 6.98046C6.75159 7.21238 6.56717 7.48779 6.44123 7.79098C6.31529 8.09417 6.2503 8.4192 6.24997 8.7475C6.24964 9.0758 6.31398 9.40096 6.43932 9.7044C6.56465 10.0078 6.74852 10.2836 6.98044 10.516C7.21235 10.7484 7.48776 10.9328 7.79095 11.0587C8.09414 11.1847 8.41917 11.2497 8.74747 11.25C9.41051 11.2507 10.0467 10.9879 10.516 10.5195C10.9853 10.0512 11.2493 9.41554 11.25 8.7525C11.2506 8.08946 10.9879 7.45331 10.5195 6.984C10.0511 6.51469 9.41551 6.25066 8.75247 6.25ZM21.2525 18.75C20.5894 18.7493 19.9533 19.0121 19.484 19.4805C19.0147 19.9488 18.7506 20.5845 18.75 21.2475C18.7493 21.9105 19.0121 22.5467 19.4804 23.016C19.9488 23.4853 20.5844 23.7493 21.2475 23.75C21.5758 23.7503 21.9009 23.686 22.2044 23.5607C22.5078 23.4353 22.7836 23.2514 23.016 23.0195C23.2484 22.7876 23.4328 22.5122 23.5587 22.209C23.6847 21.9058 23.7496 21.5808 23.75 21.2525C23.7503 20.9242 23.686 20.599 23.5606 20.2956C23.4353 19.9922 23.2514 19.7164 23.0195 19.484C22.7876 19.2516 22.5122 19.0672 22.209 18.9413C21.9058 18.8153 21.5808 18.7503 21.2525 18.75Z" fill="#7C8000"/>
</svg>
