<svg width="30" height="30" viewBox="0 0 30 30" fill="none" xmlns="http://www.w3.org/2000/svg">
<path fill-rule="evenodd" clip-rule="evenodd" d="M4.6875 4.21876H13.5938C13.8526 4.21876 14.0625 4.42861 14.0625 4.68751V13.5938C14.0625 13.8527 13.8526 14.0625 13.5938 14.0625H4.6875C4.4286 14.0625 4.21875 13.8527 4.21875 13.5938V4.68751C4.21875 4.42861 4.4286 4.21876 4.6875 4.21876ZM21.2201 3.47658L26.5234 8.7799C26.7065 8.96295 26.7065 9.25972 26.5234 9.4428L21.2201 14.7461C21.0371 14.9291 20.7403 14.9291 20.5572 14.7461L15.2539 9.44277C15.0709 9.25972 15.0709 8.96295 15.2539 8.77987L20.5572 3.47658C20.7403 3.29353 21.0371 3.29353 21.2201 3.47658ZM4.6875 15.9375H13.5938C13.8526 15.9375 14.0625 16.1474 14.0625 16.4063V25.3125C14.0625 25.5714 13.8526 25.7813 13.5938 25.7813H4.6875C4.4286 25.7813 4.21875 25.5714 4.21875 25.3125V16.4063C4.21875 16.1474 4.4286 15.9375 4.6875 15.9375ZM16.4063 15.9375H25.3125C25.5714 15.9375 25.7813 16.1474 25.7813 16.4063V25.3125C25.7813 25.5714 25.5714 25.7813 25.3125 25.7813H16.4063C16.1474 25.7813 15.9375 25.5714 15.9375 25.3125V16.4063C15.9375 16.1474 16.1474 15.9375 16.4063 15.9375Z" fill="#466C95"/>
</svg>
