<svg width="30" height="30" viewBox="0 0 30 30" fill="none" xmlns="http://www.w3.org/2000/svg">
<path d="M26.9072 7.775C26.7804 7.46956 26.5377 7.22684 26.2322 7.1C26.082 7.03595 25.9206 7.00197 25.7572 7H19.5072C19.1757 7 18.8578 7.1317 18.6234 7.36612C18.3889 7.60054 18.2572 7.91848 18.2572 8.25C18.2572 8.58152 18.3889 8.89946 18.6234 9.13388C18.8578 9.3683 19.1757 9.5 19.5072 9.5H22.7447L15.7572 16.4875L11.6447 12.3625C11.5285 12.2453 11.3903 12.1523 11.238 12.0889C11.0856 12.0254 10.9223 11.9928 10.7572 11.9928C10.5922 11.9928 10.4289 12.0254 10.2765 12.0889C10.1242 12.1523 9.98595 12.2453 9.86975 12.3625L2.36975 19.8625C2.25259 19.9787 2.15959 20.117 2.09613 20.2693C2.03267 20.4216 2 20.585 2 20.75C2 20.915 2.03267 21.0784 2.09613 21.2307C2.15959 21.383 2.25259 21.5213 2.36975 21.6375C2.48595 21.7547 2.6242 21.8477 2.77653 21.9111C2.92885 21.9746 3.09223 22.0072 3.25725 22.0072C3.42226 22.0072 3.58564 21.9746 3.73797 21.9111C3.89029 21.8477 4.02854 21.7547 4.14475 21.6375L10.7572 15.0125L14.8697 19.1375C14.986 19.2547 15.1242 19.3477 15.2765 19.4111C15.4289 19.4746 15.5922 19.5072 15.7572 19.5072C15.9223 19.5072 16.0856 19.4746 16.238 19.4111C16.3903 19.3477 16.5285 19.2547 16.6447 19.1375L24.5072 11.2625V14.5C24.5072 14.8315 24.6389 15.1495 24.8734 15.3839C25.1078 15.6183 25.4257 15.75 25.7572 15.75C26.0888 15.75 26.4067 15.6183 26.6411 15.3839C26.8756 15.1495 27.0072 14.8315 27.0072 14.5V8.25C27.0053 8.08665 26.9713 7.92528 26.9072 7.775Z" fill="#008004"/>
</svg>
